<?xml version="1.0" encoding="UTF-8"?>
<svg xmlns="http://www.w3.org/2000/svg" width="1536" height="864" viewBox="0 0 1536 864" shape-rendering="crispEdges">
<g opacity="0.86"><rect x="-16" y="-8" width="160" height="8" fill="#285342" opacity="0.86"/><rect x="-16" y="-8" width="16" height="8" fill="#285342" opacity="0.86"/><rect x="-16" y="0" width="192" height="8" fill="#173229" opacity="0.86"/><rect x="-16" y="0" width="16" height="8" fill="#1e3446" opacity="0.92"/><rect x="160" y="0" width="16" height="8" fill="#0c1c16" opacity="0.95"/><rect x="-8" y="8" width="224" height="8" fill="#173229" opacity="0.86"/><rect x="-8" y="8" width="16" height="8" fill="#1e3446" opacity="0.92"/><rect x="200" y="8" width="16" height="8" fill="#0c1c16" opacity="0.95"/><rect x="8" y="16" width="192" height="8" fill="#173229" opacity="0.86"/><rect x="8" y="16" width="16" height="8" fill="#1e3446" opacity="0.92"/><rect x="184" y="16" width="16" height="8" fill="#0c1c16" opacity="0.95"/><rect x="32" y="24" width="160" height="8" fill="#173229" opacity="0.86"/><rect x="32" y="24" width="16" height="8" fill="#1e3446" opacity="0.92"/><rect x="176" y="24" width="16" height="8" fill="#0c1c16" opacity="0.95"/><rect x="56" y="32" width="112" height="8" fill="#173229" opacity="0.86"/><rect x="56" y="32" width="16" height="8" fill="#1e3446" opacity="0.92"/><rect x="152" y="32" width="16" height="8" fill="#0c1c16" opacity="0.95"/><rect x="80" y="40" width="64" height="8" fill="#173229" opacity="0.86"/><rect x="80" y="40" width="16" height="8" fill="#1e3446" opacity="0.92"/><rect x="128" y="40" width="16" height="8" fill="#0c1c16" opacity="0.95"/></g>
<g><rect x="128" y="48" width="8" height="8" fill="#274a3f" opacity="0.84"/><rect x="128" y="56" width="8" height="8" fill="#274a3f" opacity="0.84"/><rect x="120" y="56" width="8" height="8" fill="#3d725f" opacity="0.82"/><rect x="128" y="64" width="8" height="8" fill="#274a3f" opacity="0.84"/><rect x="128" y="72" width="8" height="8" fill="#274a3f" opacity="0.84"/><rect x="128" y="80" width="8" height="8" fill="#274a3f" opacity="0.84"/><rect x="120" y="80" width="8" height="8" fill="#3d725f" opacity="0.82"/><rect x="128" y="88" width="8" height="8" fill="#274a3f" opacity="0.84"/><rect x="128" y="96" width="8" height="8" fill="#274a3f" opacity="0.84"/><rect x="128" y="104" width="8" height="8" fill="#274a3f" opacity="0.84"/><rect x="120" y="104" width="8" height="8" fill="#3d725f" opacity="0.82"/><rect x="128" y="112" width="8" height="8" fill="#274a3f" opacity="0.84"/><rect x="128" y="120" width="8" height="8" fill="#274a3f" opacity="0.84"/><rect x="128" y="128" width="8" height="8" fill="#274a3f" opacity="0.84"/><rect x="120" y="128" width="8" height="8" fill="#3d725f" opacity="0.82"/><rect x="128" y="136" width="8" height="8" fill="#274a3f" opacity="0.84"/><rect x="128" y="144" width="8" height="8" fill="#274a3f" opacity="0.84"/><rect x="128" y="152" width="8" height="8" fill="#274a3f" opacity="0.84"/><rect x="120" y="152" width="8" height="8" fill="#3d725f" opacity="0.82"/><rect x="128" y="160" width="8" height="8" fill="#274a3f" opacity="0.84"/><rect x="128" y="168" width="8" height="8" fill="#274a3f" opacity="0.84"/><rect x="128" y="176" width="8" height="8" fill="#274a3f" opacity="0.84"/><rect x="120" y="176" width="8" height="8" fill="#3d725f" opacity="0.82"/><rect x="128" y="184" width="8" height="8" fill="#274a3f" opacity="0.84"/><rect x="128" y="192" width="8" height="8" fill="#274a3f" opacity="0.84"/></g>
<g><rect x="176" y="16" width="8" height="8" fill="#274a3f" opacity="0.9"/><rect x="176" y="24" width="8" height="8" fill="#274a3f" opacity="0.9"/><rect x="184" y="24" width="8" height="8" fill="#3d725f" opacity="0.82"/><rect x="176" y="32" width="8" height="8" fill="#274a3f" opacity="0.9"/><rect x="176" y="40" width="8" height="8" fill="#274a3f" opacity="0.9"/><rect x="176" y="48" width="8" height="8" fill="#274a3f" opacity="0.9"/><rect x="184" y="48" width="8" height="8" fill="#3d725f" opacity="0.82"/><rect x="176" y="56" width="8" height="8" fill="#274a3f" opacity="0.9"/><rect x="176" y="64" width="8" height="8" fill="#274a3f" opacity="0.9"/><rect x="176" y="72" width="8" height="8" fill="#274a3f" opacity="0.9"/><rect x="184" y="72" width="8" height="8" fill="#3d725f" opacity="0.82"/><rect x="176" y="80" width="8" height="8" fill="#274a3f" opacity="0.9"/><rect x="176" y="88" width="8" height="8" fill="#274a3f" opacity="0.9"/><rect x="176" y="96" width="8" height="8" fill="#274a3f" opacity="0.9"/><rect x="184" y="96" width="8" height="8" fill="#3d725f" opacity="0.82"/><rect x="176" y="104" width="8" height="8" fill="#274a3f" opacity="0.9"/><rect x="176" y="112" width="8" height="8" fill="#274a3f" opacity="0.9"/><rect x="176" y="120" width="8" height="8" fill="#274a3f" opacity="0.9"/><rect x="184" y="120" width="8" height="8" fill="#3d725f" opacity="0.82"/><rect x="176" y="128" width="8" height="8" fill="#274a3f" opacity="0.9"/><rect x="176" y="136" width="8" height="8" fill="#274a3f" opacity="0.9"/><rect x="176" y="144" width="8" height="8" fill="#274a3f" opacity="0.9"/><rect x="184" y="144" width="8" height="8" fill="#3d725f" opacity="0.82"/><rect x="176" y="152" width="8" height="8" fill="#274a3f" opacity="0.9"/><rect x="176" y="160" width="8" height="8" fill="#274a3f" opacity="0.9"/><rect x="176" y="168" width="8" height="8" fill="#274a3f" opacity="0.9"/><rect x="184" y="168" width="8" height="8" fill="#3d725f" opacity="0.82"/><rect x="176" y="176" width="8" height="8" fill="#274a3f" opacity="0.9"/><rect x="176" y="184" width="8" height="8" fill="#274a3f" opacity="0.9"/><rect x="176" y="192" width="8" height="8" fill="#274a3f" opacity="0.9"/><rect x="184" y="192" width="8" height="8" fill="#3d725f" opacity="0.82"/><rect x="176" y="200" width="8" height="8" fill="#274a3f" opacity="0.9"/></g>
<g><rect x="240" y="72" width="8" height="8" fill="#274a3f" opacity="0.76"/><rect x="240" y="80" width="8" height="8" fill="#274a3f" opacity="0.76"/><rect x="232" y="80" width="8" height="8" fill="#3d725f" opacity="0.82"/><rect x="240" y="88" width="8" height="8" fill="#274a3f" opacity="0.76"/><rect x="240" y="96" width="8" height="8" fill="#274a3f" opacity="0.76"/><rect x="240" y="104" width="8" height="8" fill="#274a3f" opacity="0.76"/><rect x="232" y="104" width="8" height="8" fill="#3d725f" opacity="0.82"/><rect x="240" y="112" width="8" height="8" fill="#274a3f" opacity="0.76"/><rect x="240" y="120" width="8" height="8" fill="#274a3f" opacity="0.76"/><rect x="240" y="128" width="8" height="8" fill="#274a3f" opacity="0.76"/><rect x="232" y="128" width="8" height="8" fill="#3d725f" opacity="0.82"/><rect x="240" y="136" width="8" height="8" fill="#274a3f" opacity="0.76"/><rect x="240" y="144" width="8" height="8" fill="#274a3f" opacity="0.76"/><rect x="240" y="152" width="8" height="8" fill="#274a3f" opacity="0.76"/><rect x="232" y="152" width="8" height="8" fill="#3d725f" opacity="0.82"/><rect x="240" y="160" width="8" height="8" fill="#274a3f" opacity="0.76"/><rect x="240" y="168" width="8" height="8" fill="#274a3f" opacity="0.76"/><rect x="240" y="176" width="8" height="8" fill="#274a3f" opacity="0.76"/><rect x="232" y="176" width="8" height="8" fill="#3d725f" opacity="0.82"/><rect x="240" y="184" width="8" height="8" fill="#274a3f" opacity="0.76"/><rect x="240" y="192" width="8" height="8" fill="#274a3f" opacity="0.76"/><rect x="240" y="200" width="8" height="8" fill="#274a3f" opacity="0.76"/><rect x="232" y="200" width="8" height="8" fill="#3d725f" opacity="0.82"/></g>
<g opacity="0.84"><rect x="1376" y="0" width="144" height="8" fill="#285342" opacity="0.84"/><rect x="1376" y="0" width="16" height="8" fill="#285342" opacity="0.84"/><rect x="1344" y="8" width="192" height="8" fill="#173229" opacity="0.84"/><rect x="1344" y="8" width="16" height="8" fill="#1e3446" opacity="0.92"/><rect x="1520" y="8" width="16" height="8" fill="#0c1c16" opacity="0.95"/><rect x="1328" y="16" width="208" height="8" fill="#173229" opacity="0.84"/><rect x="1328" y="16" width="16" height="8" fill="#1e3446" opacity="0.92"/><rect x="1520" y="16" width="16" height="8" fill="#0c1c16" opacity="0.95"/><rect x="1344" y="24" width="176" height="8" fill="#173229" opacity="0.84"/><rect x="1344" y="24" width="16" height="8" fill="#1e3446" opacity="0.92"/><rect x="1504" y="24" width="16" height="8" fill="#0c1c16" opacity="0.95"/><rect x="1360" y="32" width="144" height="8" fill="#173229" opacity="0.84"/><rect x="1360" y="32" width="16" height="8" fill="#1e3446" opacity="0.92"/><rect x="1488" y="32" width="16" height="8" fill="#0c1c16" opacity="0.95"/><rect x="1384" y="40" width="96" height="8" fill="#173229" opacity="0.84"/><rect x="1384" y="40" width="16" height="8" fill="#1e3446" opacity="0.92"/><rect x="1464" y="40" width="16" height="8" fill="#0c1c16" opacity="0.95"/></g>
<g><rect x="1368" y="40" width="8" height="8" fill="#274a3f" opacity="0.84"/><rect x="1368" y="48" width="8" height="8" fill="#274a3f" opacity="0.84"/><rect x="1376" y="48" width="8" height="8" fill="#3d725f" opacity="0.82"/><rect x="1368" y="56" width="8" height="8" fill="#274a3f" opacity="0.84"/><rect x="1368" y="64" width="8" height="8" fill="#274a3f" opacity="0.84"/><rect x="1368" y="72" width="8" height="8" fill="#274a3f" opacity="0.84"/><rect x="1376" y="72" width="8" height="8" fill="#3d725f" opacity="0.82"/><rect x="1368" y="80" width="8" height="8" fill="#274a3f" opacity="0.84"/><rect x="1368" y="88" width="8" height="8" fill="#274a3f" opacity="0.84"/><rect x="1368" y="96" width="8" height="8" fill="#274a3f" opacity="0.84"/><rect x="1376" y="96" width="8" height="8" fill="#3d725f" opacity="0.82"/><rect x="1368" y="104" width="8" height="8" fill="#274a3f" opacity="0.84"/><rect x="1368" y="112" width="8" height="8" fill="#274a3f" opacity="0.84"/><rect x="1368" y="120" width="8" height="8" fill="#274a3f" opacity="0.84"/><rect x="1376" y="120" width="8" height="8" fill="#3d725f" opacity="0.82"/><rect x="1368" y="128" width="8" height="8" fill="#274a3f" opacity="0.84"/><rect x="1368" y="136" width="8" height="8" fill="#274a3f" opacity="0.84"/><rect x="1368" y="144" width="8" height="8" fill="#274a3f" opacity="0.84"/><rect x="1376" y="144" width="8" height="8" fill="#3d725f" opacity="0.82"/><rect x="1368" y="152" width="8" height="8" fill="#274a3f" opacity="0.84"/><rect x="1368" y="160" width="8" height="8" fill="#274a3f" opacity="0.84"/><rect x="1368" y="168" width="8" height="8" fill="#274a3f" opacity="0.84"/><rect x="1376" y="168" width="8" height="8" fill="#3d725f" opacity="0.82"/><rect x="1368" y="176" width="8" height="8" fill="#274a3f" opacity="0.84"/><rect x="1368" y="184" width="8" height="8" fill="#274a3f" opacity="0.84"/><rect x="1368" y="192" width="8" height="8" fill="#274a3f" opacity="0.84"/><rect x="1376" y="192" width="8" height="8" fill="#3d725f" opacity="0.82"/><rect x="1368" y="200" width="8" height="8" fill="#274a3f" opacity="0.84"/><rect x="1368" y="208" width="8" height="8" fill="#274a3f" opacity="0.84"/></g>
<g><rect x="1448" y="64" width="8" height="8" fill="#274a3f" opacity="0.74"/><rect x="1448" y="72" width="8" height="8" fill="#274a3f" opacity="0.74"/><rect x="1440" y="72" width="8" height="8" fill="#3d725f" opacity="0.82"/><rect x="1448" y="80" width="8" height="8" fill="#274a3f" opacity="0.74"/><rect x="1448" y="88" width="8" height="8" fill="#274a3f" opacity="0.74"/><rect x="1448" y="96" width="8" height="8" fill="#274a3f" opacity="0.74"/><rect x="1440" y="96" width="8" height="8" fill="#3d725f" opacity="0.82"/><rect x="1448" y="104" width="8" height="8" fill="#274a3f" opacity="0.74"/><rect x="1448" y="112" width="8" height="8" fill="#274a3f" opacity="0.74"/><rect x="1448" y="120" width="8" height="8" fill="#274a3f" opacity="0.74"/><rect x="1440" y="120" width="8" height="8" fill="#3d725f" opacity="0.82"/><rect x="1448" y="128" width="8" height="8" fill="#274a3f" opacity="0.74"/><rect x="1448" y="136" width="8" height="8" fill="#274a3f" opacity="0.74"/><rect x="1448" y="144" width="8" height="8" fill="#274a3f" opacity="0.74"/><rect x="1440" y="144" width="8" height="8" fill="#3d725f" opacity="0.82"/><rect x="1448" y="152" width="8" height="8" fill="#274a3f" opacity="0.74"/><rect x="1448" y="160" width="8" height="8" fill="#274a3f" opacity="0.74"/><rect x="1448" y="168" width="8" height="8" fill="#274a3f" opacity="0.74"/><rect x="1440" y="168" width="8" height="8" fill="#3d725f" opacity="0.82"/><rect x="1448" y="176" width="8" height="8" fill="#274a3f" opacity="0.74"/><rect x="1448" y="184" width="8" height="8" fill="#274a3f" opacity="0.74"/></g>
<g opacity="0.88"><rect x="-8" y="664" width="112" height="8" fill="#285342" opacity="0.88"/><rect x="-8" y="664" width="16" height="8" fill="#285342" opacity="0.88"/><rect x="-8" y="672" width="144" height="8" fill="#173229" opacity="0.88"/><rect x="-8" y="672" width="16" height="8" fill="#1e3446" opacity="0.92"/><rect x="120" y="672" width="16" height="8" fill="#0c1c16" opacity="0.95"/><rect x="0" y="680" width="160" height="8" fill="#173229" opacity="0.88"/><rect x="0" y="680" width="16" height="8" fill="#1e3446" opacity="0.92"/><rect x="144" y="680" width="16" height="8" fill="#0c1c16" opacity="0.95"/><rect x="16" y="688" width="144" height="8" fill="#173229" opacity="0.88"/><rect x="16" y="688" width="16" height="8" fill="#1e3446" opacity="0.92"/><rect x="144" y="688" width="16" height="8" fill="#0c1c16" opacity="0.95"/><rect x="32" y="696" width="112" height="8" fill="#173229" opacity="0.88"/><rect x="32" y="696" width="16" height="8" fill="#1e3446" opacity="0.92"/><rect x="128" y="696" width="16" height="8" fill="#0c1c16" opacity="0.95"/><rect x="56" y="704" width="80" height="8" fill="#173229" opacity="0.88"/><rect x="56" y="704" width="16" height="8" fill="#1e3446" opacity="0.92"/><rect x="120" y="704" width="16" height="8" fill="#0c1c16" opacity="0.95"/></g>
<g opacity="0.88"><rect x="1408" y="672" width="112" height="8" fill="#285342" opacity="0.88"/><rect x="1408" y="672" width="16" height="8" fill="#285342" opacity="0.88"/><rect x="1392" y="680" width="144" height="8" fill="#173229" opacity="0.88"/><rect x="1392" y="680" width="16" height="8" fill="#1e3446" opacity="0.92"/><rect x="1520" y="680" width="16" height="8" fill="#0c1c16" opacity="0.95"/><rect x="1376" y="688" width="160" height="8" fill="#173229" opacity="0.88"/><rect x="1376" y="688" width="16" height="8" fill="#1e3446" opacity="0.92"/><rect x="1520" y="688" width="16" height="8" fill="#0c1c16" opacity="0.95"/><rect x="1392" y="696" width="144" height="8" fill="#173229" opacity="0.88"/><rect x="1392" y="696" width="16" height="8" fill="#1e3446" opacity="0.92"/><rect x="1520" y="696" width="16" height="8" fill="#0c1c16" opacity="0.95"/><rect x="1416" y="704" width="112" height="8" fill="#173229" opacity="0.88"/><rect x="1416" y="704" width="16" height="8" fill="#1e3446" opacity="0.92"/><rect x="1512" y="704" width="16" height="8" fill="#0c1c16" opacity="0.95"/><rect x="1440" y="712" width="80" height="8" fill="#173229" opacity="0.88"/><rect x="1440" y="712" width="16" height="8" fill="#1e3446" opacity="0.92"/><rect x="1504" y="712" width="16" height="8" fill="#0c1c16" opacity="0.95"/></g>
<g><rect x="88" y="720" width="8" height="8" fill="#274a3f" opacity="0.82"/><rect x="88" y="728" width="8" height="8" fill="#274a3f" opacity="0.82"/><rect x="80" y="728" width="8" height="8" fill="#3d725f" opacity="0.82"/><rect x="88" y="736" width="8" height="8" fill="#274a3f" opacity="0.82"/><rect x="88" y="744" width="8" height="8" fill="#274a3f" opacity="0.82"/><rect x="88" y="752" width="8" height="8" fill="#274a3f" opacity="0.82"/><rect x="80" y="752" width="8" height="8" fill="#3d725f" opacity="0.82"/><rect x="88" y="760" width="8" height="8" fill="#274a3f" opacity="0.82"/><rect x="88" y="768" width="8" height="8" fill="#274a3f" opacity="0.82"/><rect x="88" y="776" width="8" height="8" fill="#274a3f" opacity="0.82"/><rect x="80" y="776" width="8" height="8" fill="#3d725f" opacity="0.82"/><rect x="88" y="784" width="8" height="8" fill="#274a3f" opacity="0.82"/><rect x="88" y="792" width="8" height="8" fill="#274a3f" opacity="0.82"/><rect x="88" y="800" width="8" height="8" fill="#274a3f" opacity="0.82"/><rect x="80" y="800" width="8" height="8" fill="#3d725f" opacity="0.82"/><rect x="88" y="808" width="8" height="8" fill="#274a3f" opacity="0.82"/></g>
<g><rect x="1424" y="704" width="8" height="8" fill="#274a3f" opacity="0.8"/><rect x="1424" y="712" width="8" height="8" fill="#274a3f" opacity="0.8"/><rect x="1432" y="712" width="8" height="8" fill="#3d725f" opacity="0.82"/><rect x="1424" y="720" width="8" height="8" fill="#274a3f" opacity="0.8"/><rect x="1424" y="728" width="8" height="8" fill="#274a3f" opacity="0.8"/><rect x="1424" y="736" width="8" height="8" fill="#274a3f" opacity="0.8"/><rect x="1432" y="736" width="8" height="8" fill="#3d725f" opacity="0.82"/><rect x="1424" y="744" width="8" height="8" fill="#274a3f" opacity="0.8"/><rect x="1424" y="752" width="8" height="8" fill="#274a3f" opacity="0.8"/><rect x="1424" y="760" width="8" height="8" fill="#274a3f" opacity="0.8"/><rect x="1432" y="760" width="8" height="8" fill="#3d725f" opacity="0.82"/><rect x="1424" y="768" width="8" height="8" fill="#274a3f" opacity="0.8"/><rect x="1424" y="776" width="8" height="8" fill="#274a3f" opacity="0.8"/><rect x="1424" y="784" width="8" height="8" fill="#274a3f" opacity="0.8"/><rect x="1432" y="784" width="8" height="8" fill="#3d725f" opacity="0.82"/><rect x="1424" y="792" width="8" height="8" fill="#274a3f" opacity="0.8"/><rect x="1424" y="800" width="8" height="8" fill="#274a3f" opacity="0.8"/><rect x="1424" y="808" width="8" height="8" fill="#274a3f" opacity="0.8"/><rect x="1432" y="808" width="8" height="8" fill="#3d725f" opacity="0.82"/></g>
<g><rect x="0" y="112" width="64" height="16" fill="#5d7e92" opacity="0.38"/><rect x="0" y="112" width="16" height="64" fill="#5d7e92" opacity="0.38"/><rect x="48" y="112" width="16" height="64" fill="#5d7e92" opacity="0.38"/><rect x="0" y="112" width="8" height="64" fill="#87b8c8" opacity="0.92"/><rect x="56" y="112" width="8" height="64" fill="#283b4c" opacity="0.92"/><rect x="16" y="160" width="32" height="16" fill="#283b4c" opacity="0.15"/></g>
<g opacity="0.36"><rect x="1464" y="144" width="16" height="8" fill="#5d7e92"/><rect x="1456" y="152" width="32" height="72" fill="#5d7e92"/><rect x="1456" y="152" width="8" height="72" fill="#87b8c8"/><rect x="1480" y="152" width="8" height="72" fill="#283b4c"/></g>
</svg>
