<?xml version="1.0" encoding="UTF-8"?>
<svg xmlns="http://www.w3.org/2000/svg" width="1536" height="864" viewBox="0 0 1536 864" shape-rendering="crispEdges">
<g opacity="0.94"><rect x="96" y="448" width="240" height="8" fill="#567f95" opacity="0.94"/><rect x="96" y="448" width="16" height="8" fill="#7fe9ff" opacity="0.94"/><rect x="80" y="456" width="272" height="8" fill="#567f95" opacity="0.94"/><rect x="80" y="456" width="16" height="8" fill="#7fe9ff" opacity="0.94"/><rect x="64" y="464" width="304" height="8" fill="#2d4b61" opacity="0.94"/><rect x="64" y="464" width="16" height="8" fill="#1e3446" opacity="0.92"/><rect x="352" y="464" width="16" height="8" fill="#11212f" opacity="0.95"/><rect x="48" y="472" width="336" height="8" fill="#2d4b61" opacity="0.94"/><rect x="48" y="472" width="16" height="8" fill="#1e3446" opacity="0.92"/><rect x="368" y="472" width="16" height="8" fill="#11212f" opacity="0.95"/><rect x="48" y="480" width="320" height="8" fill="#2d4b61" opacity="0.94"/><rect x="48" y="480" width="16" height="8" fill="#1e3446" opacity="0.92"/><rect x="352" y="480" width="16" height="8" fill="#11212f" opacity="0.95"/><rect x="56" y="488" width="304" height="8" fill="#2d4b61" opacity="0.94"/><rect x="56" y="488" width="16" height="8" fill="#1e3446" opacity="0.92"/><rect x="344" y="488" width="16" height="8" fill="#11212f" opacity="0.95"/><rect x="72" y="496" width="272" height="8" fill="#2d4b61" opacity="0.94"/><rect x="72" y="496" width="16" height="8" fill="#1e3446" opacity="0.92"/><rect x="328" y="496" width="16" height="8" fill="#11212f" opacity="0.95"/><rect x="88" y="504" width="240" height="8" fill="#2d4b61" opacity="0.94"/><rect x="88" y="504" width="16" height="8" fill="#1e3446" opacity="0.92"/><rect x="312" y="504" width="16" height="8" fill="#11212f" opacity="0.95"/><rect x="112" y="512" width="192" height="8" fill="#2d4b61" opacity="0.94"/><rect x="112" y="512" width="16" height="8" fill="#1e3446" opacity="0.92"/><rect x="288" y="512" width="16" height="8" fill="#11212f" opacity="0.95"/><rect x="128" y="520" width="160" height="8" fill="#2d4b61" opacity="0.94"/><rect x="128" y="520" width="16" height="8" fill="#1e3446" opacity="0.92"/><rect x="272" y="520" width="16" height="8" fill="#11212f" opacity="0.95"/><rect x="144" y="528" width="128" height="8" fill="#2d4b61" opacity="0.94"/><rect x="144" y="528" width="16" height="8" fill="#1e3446" opacity="0.92"/><rect x="256" y="528" width="16" height="8" fill="#11212f" opacity="0.95"/><rect x="168" y="536" width="80" height="8" fill="#2d4b61" opacity="0.94"/><rect x="168" y="536" width="16" height="8" fill="#1e3446" opacity="0.92"/><rect x="232" y="536" width="16" height="8" fill="#11212f" opacity="0.95"/></g>
<g><rect x="144" y="400" width="72" height="16" fill="#5d7e92" opacity="0.9"/><rect x="144" y="400" width="16" height="64" fill="#5d7e92" opacity="0.9"/><rect x="200" y="400" width="16" height="64" fill="#5d7e92" opacity="0.9"/><rect x="144" y="400" width="8" height="64" fill="#87b8c8" opacity="0.92"/><rect x="208" y="400" width="8" height="64" fill="#283b4c" opacity="0.92"/><rect x="160" y="448" width="40" height="16" fill="#283b4c" opacity="0.15"/></g>
<g opacity="0.88"><rect x="256" y="384" width="24" height="8" fill="#5d7e92"/><rect x="248" y="392" width="40" height="72" fill="#5d7e92"/><rect x="248" y="392" width="8" height="72" fill="#87b8c8"/><rect x="280" y="392" width="8" height="72" fill="#283b4c"/><rect x="264" y="400" width="8" height="16" fill="#283b4c" opacity="0.85"/><rect x="264" y="408" width="8" height="16" fill="#283b4c" opacity="0.85"/><rect x="264" y="392" width="8" height="16" fill="#283b4c"/></g>
<g><g opacity="0.92"><rect x="104" y="416" width="0" height="8" fill="#5d7e92"/><rect x="96" y="424" width="16" height="40" fill="#5d7e92"/><rect x="96" y="424" width="8" height="40" fill="#87b8c8"/><rect x="104" y="424" width="8" height="40" fill="#283b4c"/></g><g opacity="0.88"><rect x="152" y="408" width="8" height="8" fill="#5d7e92"/><rect x="144" y="416" width="24" height="48" fill="#5d7e92"/><rect x="144" y="416" width="8" height="48" fill="#87b8c8"/><rect x="160" y="416" width="8" height="48" fill="#283b4c"/><rect x="152" y="416" width="8" height="16" fill="#283b4c"/></g><rect x="104" y="416" width="48" height="8" fill="#5d7e92" opacity="0.86"/></g>
<g><rect x="56" y="464" width="24" height="144" fill="#47b9d6" opacity="0.82"/><rect x="64" y="464" width="8" height="144" fill="#8af7ff" opacity="0.92"/><rect x="48" y="608" width="40" height="8" fill="#8af7ff" opacity="0.45"/><rect x="56" y="616" width="24" height="8" fill="#47b9d6" opacity="0.32"/><rect x="40" y="624" width="56" height="8" fill="#78dff4" opacity="0.18"/></g>
<g><rect x="328" y="528" width="8" height="8" fill="#274a3f" opacity="0.92"/><rect x="328" y="536" width="8" height="8" fill="#274a3f" opacity="0.92"/><rect x="336" y="536" width="8" height="8" fill="#3d725f" opacity="0.82"/><rect x="328" y="544" width="8" height="8" fill="#274a3f" opacity="0.92"/><rect x="328" y="552" width="8" height="8" fill="#274a3f" opacity="0.92"/><rect x="328" y="560" width="8" height="8" fill="#274a3f" opacity="0.92"/><rect x="336" y="560" width="8" height="8" fill="#3d725f" opacity="0.82"/><rect x="328" y="568" width="8" height="8" fill="#274a3f" opacity="0.92"/><rect x="328" y="576" width="8" height="8" fill="#274a3f" opacity="0.92"/><rect x="328" y="584" width="8" height="8" fill="#274a3f" opacity="0.92"/><rect x="336" y="584" width="8" height="8" fill="#3d725f" opacity="0.82"/><rect x="328" y="592" width="8" height="8" fill="#274a3f" opacity="0.92"/><rect x="328" y="600" width="8" height="8" fill="#274a3f" opacity="0.92"/><rect x="328" y="608" width="8" height="8" fill="#274a3f" opacity="0.92"/><rect x="336" y="608" width="8" height="8" fill="#3d725f" opacity="0.82"/><rect x="328" y="616" width="8" height="8" fill="#274a3f" opacity="0.92"/></g>
<g><rect x="216" y="544" width="8" height="8" fill="#274a3f" opacity="0.92"/><rect x="216" y="552" width="8" height="8" fill="#274a3f" opacity="0.92"/><rect x="208" y="552" width="8" height="8" fill="#3d725f" opacity="0.82"/><rect x="216" y="560" width="8" height="8" fill="#274a3f" opacity="0.92"/><rect x="216" y="568" width="8" height="8" fill="#274a3f" opacity="0.92"/><rect x="216" y="576" width="8" height="8" fill="#274a3f" opacity="0.92"/><rect x="208" y="576" width="8" height="8" fill="#3d725f" opacity="0.82"/><rect x="216" y="584" width="8" height="8" fill="#274a3f" opacity="0.92"/><rect x="216" y="592" width="8" height="8" fill="#274a3f" opacity="0.92"/><rect x="216" y="600" width="8" height="8" fill="#274a3f" opacity="0.92"/><rect x="208" y="600" width="8" height="8" fill="#3d725f" opacity="0.82"/><rect x="216" y="608" width="8" height="8" fill="#274a3f" opacity="0.92"/><rect x="216" y="616" width="8" height="8" fill="#274a3f" opacity="0.92"/></g>
<g opacity="0.94"><rect x="1064" y="400" width="224" height="8" fill="#567f95" opacity="0.94"/><rect x="1064" y="400" width="16" height="8" fill="#7fe9ff" opacity="0.94"/><rect x="1048" y="408" width="256" height="8" fill="#567f95" opacity="0.94"/><rect x="1048" y="408" width="16" height="8" fill="#7fe9ff" opacity="0.94"/><rect x="1032" y="416" width="288" height="8" fill="#2d4b61" opacity="0.94"/><rect x="1032" y="416" width="16" height="8" fill="#1e3446" opacity="0.92"/><rect x="1304" y="416" width="16" height="8" fill="#11212f" opacity="0.95"/><rect x="1016" y="424" width="320" height="8" fill="#2d4b61" opacity="0.94"/><rect x="1016" y="424" width="16" height="8" fill="#1e3446" opacity="0.92"/><rect x="1320" y="424" width="16" height="8" fill="#11212f" opacity="0.95"/><rect x="1008" y="432" width="336" height="8" fill="#2d4b61" opacity="0.94"/><rect x="1008" y="432" width="16" height="8" fill="#1e3446" opacity="0.92"/><rect x="1328" y="432" width="16" height="8" fill="#11212f" opacity="0.95"/><rect x="1024" y="440" width="304" height="8" fill="#2d4b61" opacity="0.94"/><rect x="1024" y="440" width="16" height="8" fill="#1e3446" opacity="0.92"/><rect x="1312" y="440" width="16" height="8" fill="#11212f" opacity="0.95"/><rect x="1040" y="448" width="272" height="8" fill="#2d4b61" opacity="0.94"/><rect x="1040" y="448" width="16" height="8" fill="#1e3446" opacity="0.92"/><rect x="1296" y="448" width="16" height="8" fill="#11212f" opacity="0.95"/><rect x="1064" y="456" width="224" height="8" fill="#2d4b61" opacity="0.94"/><rect x="1064" y="456" width="16" height="8" fill="#1e3446" opacity="0.92"/><rect x="1272" y="456" width="16" height="8" fill="#11212f" opacity="0.95"/><rect x="1080" y="464" width="192" height="8" fill="#2d4b61" opacity="0.94"/><rect x="1080" y="464" width="16" height="8" fill="#1e3446" opacity="0.92"/><rect x="1256" y="464" width="16" height="8" fill="#11212f" opacity="0.95"/><rect x="1104" y="472" width="144" height="8" fill="#2d4b61" opacity="0.94"/><rect x="1104" y="472" width="16" height="8" fill="#1e3446" opacity="0.92"/><rect x="1232" y="472" width="16" height="8" fill="#11212f" opacity="0.95"/><rect x="1120" y="480" width="112" height="8" fill="#2d4b61" opacity="0.94"/><rect x="1120" y="480" width="16" height="8" fill="#1e3446" opacity="0.92"/><rect x="1216" y="480" width="16" height="8" fill="#11212f" opacity="0.95"/><rect x="1144" y="488" width="64" height="8" fill="#2d4b61" opacity="0.94"/><rect x="1144" y="488" width="16" height="8" fill="#1e3446" opacity="0.92"/><rect x="1192" y="488" width="16" height="8" fill="#11212f" opacity="0.95"/></g>
<g opacity="0.92"><rect x="1144" y="352" width="24" height="8" fill="#5d7e92"/><rect x="1136" y="360" width="40" height="88" fill="#5d7e92"/><rect x="1136" y="360" width="8" height="88" fill="#87b8c8"/><rect x="1168" y="360" width="8" height="88" fill="#283b4c"/><rect x="1152" y="368" width="8" height="16" fill="#283b4c" opacity="0.85"/><rect x="1152" y="376" width="8" height="16" fill="#283b4c" opacity="0.85"/></g>
<g><rect x="1208" y="384" width="80" height="16" fill="#5d7e92" opacity="0.9"/><rect x="1208" y="384" width="16" height="64" fill="#5d7e92" opacity="0.9"/><rect x="1272" y="384" width="16" height="64" fill="#5d7e92" opacity="0.9"/><rect x="1208" y="384" width="8" height="64" fill="#87b8c8" opacity="0.92"/><rect x="1280" y="384" width="8" height="64" fill="#283b4c" opacity="0.92"/><rect x="1224" y="432" width="48" height="16" fill="#283b4c" opacity="0.15"/></g>
<g><g opacity="0.92"><rect x="1088" y="408" width="0" height="8" fill="#5d7e92"/><rect x="1080" y="416" width="16" height="32" fill="#5d7e92"/><rect x="1080" y="416" width="8" height="32" fill="#87b8c8"/><rect x="1088" y="416" width="8" height="32" fill="#283b4c"/></g><g opacity="0.88"><rect x="1136" y="400" width="8" height="8" fill="#5d7e92"/><rect x="1128" y="408" width="24" height="40" fill="#5d7e92"/><rect x="1128" y="408" width="8" height="40" fill="#87b8c8"/><rect x="1144" y="408" width="8" height="40" fill="#283b4c"/><rect x="1136" y="408" width="8" height="16" fill="#283b4c"/></g><rect x="1088" y="408" width="48" height="8" fill="#5d7e92" opacity="0.86"/></g>
<g><rect x="1320" y="448" width="24" height="136" fill="#47b9d6" opacity="0.82"/><rect x="1328" y="448" width="8" height="136" fill="#8af7ff" opacity="0.92"/><rect x="1312" y="584" width="40" height="8" fill="#8af7ff" opacity="0.45"/><rect x="1320" y="592" width="24" height="8" fill="#47b9d6" opacity="0.32"/><rect x="1304" y="600" width="56" height="8" fill="#78dff4" opacity="0.18"/></g>
<g><rect x="1048" y="512" width="8" height="8" fill="#274a3f" opacity="0.92"/><rect x="1048" y="520" width="8" height="8" fill="#274a3f" opacity="0.92"/><rect x="1040" y="520" width="8" height="8" fill="#3d725f" opacity="0.82"/><rect x="1048" y="528" width="8" height="8" fill="#274a3f" opacity="0.92"/><rect x="1048" y="536" width="8" height="8" fill="#274a3f" opacity="0.92"/><rect x="1048" y="544" width="8" height="8" fill="#274a3f" opacity="0.92"/><rect x="1040" y="544" width="8" height="8" fill="#3d725f" opacity="0.82"/><rect x="1048" y="552" width="8" height="8" fill="#274a3f" opacity="0.92"/><rect x="1048" y="560" width="8" height="8" fill="#274a3f" opacity="0.92"/><rect x="1048" y="568" width="8" height="8" fill="#274a3f" opacity="0.92"/><rect x="1040" y="568" width="8" height="8" fill="#3d725f" opacity="0.82"/><rect x="1048" y="576" width="8" height="8" fill="#274a3f" opacity="0.92"/><rect x="1048" y="584" width="8" height="8" fill="#274a3f" opacity="0.92"/><rect x="1048" y="592" width="8" height="8" fill="#274a3f" opacity="0.92"/><rect x="1040" y="592" width="8" height="8" fill="#3d725f" opacity="0.82"/></g>
<g><rect x="1208" y="536" width="8" height="8" fill="#274a3f" opacity="0.92"/><rect x="1208" y="544" width="8" height="8" fill="#274a3f" opacity="0.92"/><rect x="1216" y="544" width="8" height="8" fill="#3d725f" opacity="0.82"/><rect x="1208" y="552" width="8" height="8" fill="#274a3f" opacity="0.92"/><rect x="1208" y="560" width="8" height="8" fill="#274a3f" opacity="0.92"/><rect x="1208" y="568" width="8" height="8" fill="#274a3f" opacity="0.92"/><rect x="1216" y="568" width="8" height="8" fill="#3d725f" opacity="0.82"/><rect x="1208" y="576" width="8" height="8" fill="#274a3f" opacity="0.92"/><rect x="1208" y="584" width="8" height="8" fill="#274a3f" opacity="0.92"/><rect x="1208" y="592" width="8" height="8" fill="#274a3f" opacity="0.92"/><rect x="1216" y="592" width="8" height="8" fill="#3d725f" opacity="0.82"/><rect x="1208" y="600" width="8" height="8" fill="#274a3f" opacity="0.92"/></g>
<g opacity="0.82"><rect x="688" y="360" width="112" height="8" fill="#567f95" opacity="0.82"/><rect x="688" y="360" width="16" height="8" fill="#7fe9ff" opacity="0.82"/><rect x="680" y="368" width="128" height="8" fill="#567f95" opacity="0.82"/><rect x="680" y="368" width="16" height="8" fill="#7fe9ff" opacity="0.82"/><rect x="672" y="376" width="144" height="8" fill="#2d4b61" opacity="0.82"/><rect x="672" y="376" width="16" height="8" fill="#1e3446" opacity="0.92"/><rect x="800" y="376" width="16" height="8" fill="#11212f" opacity="0.95"/><rect x="680" y="384" width="128" height="8" fill="#2d4b61" opacity="0.82"/><rect x="680" y="384" width="16" height="8" fill="#1e3446" opacity="0.92"/><rect x="792" y="384" width="16" height="8" fill="#11212f" opacity="0.95"/><rect x="696" y="392" width="96" height="8" fill="#2d4b61" opacity="0.82"/><rect x="696" y="392" width="16" height="8" fill="#1e3446" opacity="0.92"/><rect x="776" y="392" width="16" height="8" fill="#11212f" opacity="0.95"/><rect x="712" y="400" width="64" height="8" fill="#2d4b61" opacity="0.82"/><rect x="712" y="400" width="16" height="8" fill="#1e3446" opacity="0.92"/><rect x="760" y="400" width="16" height="8" fill="#11212f" opacity="0.95"/></g>
<g><rect x="704" y="320" width="56" height="16" fill="#5d7e92" opacity="0.78"/><rect x="704" y="320" width="16" height="48" fill="#5d7e92" opacity="0.78"/><rect x="744" y="320" width="16" height="48" fill="#5d7e92" opacity="0.78"/><rect x="704" y="320" width="8" height="48" fill="#87b8c8" opacity="0.92"/><rect x="752" y="320" width="8" height="48" fill="#283b4c" opacity="0.92"/><rect x="720" y="352" width="24" height="16" fill="#283b4c" opacity="0.15"/></g>
<g><rect x="776" y="368" width="16" height="88" fill="#47b9d6" opacity="0.82"/><rect x="784" y="368" width="8" height="88" fill="#8af7ff" opacity="0.92"/><rect x="768" y="456" width="32" height="8" fill="#8af7ff" opacity="0.45"/><rect x="776" y="464" width="16" height="8" fill="#47b9d6" opacity="0.32"/></g>
</svg>
