<?xml version="1.0" encoding="UTF-8"?>
<svg xmlns="http://www.w3.org/2000/svg" width="1536" height="864" viewBox="0 0 1536 864" shape-rendering="crispEdges">
<g opacity="0.86"><rect x="176" y="272" width="144" height="8" fill="#567f95" opacity="0.86"/><rect x="176" y="272" width="16" height="8" fill="#7fe9ff" opacity="0.86"/><rect x="160" y="280" width="176" height="8" fill="#567f95" opacity="0.86"/><rect x="160" y="280" width="16" height="8" fill="#7fe9ff" opacity="0.86"/><rect x="152" y="288" width="192" height="8" fill="#2d4b61" opacity="0.86"/><rect x="152" y="288" width="16" height="8" fill="#1e3446" opacity="0.92"/><rect x="328" y="288" width="16" height="8" fill="#11212f" opacity="0.95"/><rect x="144" y="296" width="208" height="8" fill="#2d4b61" opacity="0.86"/><rect x="144" y="296" width="16" height="8" fill="#1e3446" opacity="0.92"/><rect x="336" y="296" width="16" height="8" fill="#11212f" opacity="0.95"/><rect x="152" y="304" width="184" height="8" fill="#2d4b61" opacity="0.86"/><rect x="152" y="304" width="16" height="8" fill="#1e3446" opacity="0.92"/><rect x="320" y="304" width="16" height="8" fill="#11212f" opacity="0.95"/><rect x="160" y="312" width="160" height="8" fill="#2d4b61" opacity="0.86"/><rect x="160" y="312" width="16" height="8" fill="#1e3446" opacity="0.92"/><rect x="304" y="312" width="16" height="8" fill="#11212f" opacity="0.95"/><rect x="176" y="320" width="128" height="8" fill="#2d4b61" opacity="0.86"/><rect x="176" y="320" width="16" height="8" fill="#1e3446" opacity="0.92"/><rect x="288" y="320" width="16" height="8" fill="#11212f" opacity="0.95"/><rect x="192" y="328" width="88" height="8" fill="#2d4b61" opacity="0.86"/><rect x="192" y="328" width="16" height="8" fill="#1e3446" opacity="0.92"/><rect x="264" y="328" width="16" height="8" fill="#11212f" opacity="0.95"/><rect x="208" y="336" width="56" height="8" fill="#2d4b61" opacity="0.86"/><rect x="208" y="336" width="16" height="8" fill="#1e3446" opacity="0.92"/><rect x="248" y="336" width="16" height="8" fill="#11212f" opacity="0.95"/></g>
<g opacity="0.8"><rect x="224" y="240" width="16" height="8" fill="#5d7e92"/><rect x="216" y="248" width="32" height="40" fill="#5d7e92"/><rect x="216" y="248" width="8" height="40" fill="#87b8c8"/><rect x="240" y="248" width="8" height="40" fill="#283b4c"/><rect x="232" y="248" width="8" height="16" fill="#283b4c"/></g>
<g><g opacity="0.92"><rect x="288" y="256" width="0" height="8" fill="#5d7e92"/><rect x="280" y="264" width="16" height="24" fill="#5d7e92"/><rect x="280" y="264" width="8" height="24" fill="#87b8c8"/><rect x="288" y="264" width="8" height="24" fill="#283b4c"/></g><g opacity="0.88"><rect x="328" y="248" width="8" height="8" fill="#5d7e92"/><rect x="320" y="256" width="24" height="32" fill="#5d7e92"/><rect x="320" y="256" width="8" height="32" fill="#87b8c8"/><rect x="336" y="256" width="8" height="32" fill="#283b4c"/><rect x="328" y="256" width="8" height="16" fill="#283b4c"/></g><rect x="288" y="256" width="40" height="8" fill="#5d7e92" opacity="0.86"/></g>
<g><rect x="176" y="288" width="24" height="80" fill="#47b9d6" opacity="0.82"/><rect x="184" y="288" width="8" height="80" fill="#8af7ff" opacity="0.92"/><rect x="168" y="368" width="40" height="8" fill="#8af7ff" opacity="0.45"/><rect x="176" y="376" width="24" height="8" fill="#47b9d6" opacity="0.32"/><rect x="160" y="384" width="56" height="8" fill="#78dff4" opacity="0.18"/></g>
<g><rect x="320" y="328" width="8" height="8" fill="#274a3f" opacity="0.78"/><rect x="320" y="336" width="8" height="8" fill="#274a3f" opacity="0.78"/><rect x="328" y="336" width="8" height="8" fill="#3d725f" opacity="0.82"/><rect x="320" y="344" width="8" height="8" fill="#274a3f" opacity="0.78"/><rect x="320" y="352" width="8" height="8" fill="#274a3f" opacity="0.78"/><rect x="320" y="360" width="8" height="8" fill="#274a3f" opacity="0.78"/><rect x="328" y="360" width="8" height="8" fill="#3d725f" opacity="0.82"/><rect x="320" y="368" width="8" height="8" fill="#274a3f" opacity="0.78"/><rect x="320" y="376" width="8" height="8" fill="#274a3f" opacity="0.78"/></g>
<g opacity="0.84"><rect x="1176" y="240" width="120" height="8" fill="#567f95" opacity="0.84"/><rect x="1176" y="240" width="16" height="8" fill="#7fe9ff" opacity="0.84"/><rect x="1168" y="248" width="144" height="8" fill="#567f95" opacity="0.84"/><rect x="1168" y="248" width="16" height="8" fill="#7fe9ff" opacity="0.84"/><rect x="1160" y="256" width="160" height="8" fill="#2d4b61" opacity="0.84"/><rect x="1160" y="256" width="16" height="8" fill="#1e3446" opacity="0.92"/><rect x="1304" y="256" width="16" height="8" fill="#11212f" opacity="0.95"/><rect x="1152" y="264" width="176" height="8" fill="#2d4b61" opacity="0.84"/><rect x="1152" y="264" width="16" height="8" fill="#1e3446" opacity="0.92"/><rect x="1312" y="264" width="16" height="8" fill="#11212f" opacity="0.95"/><rect x="1160" y="272" width="160" height="8" fill="#2d4b61" opacity="0.84"/><rect x="1160" y="272" width="16" height="8" fill="#1e3446" opacity="0.92"/><rect x="1304" y="272" width="16" height="8" fill="#11212f" opacity="0.95"/><rect x="1176" y="280" width="128" height="8" fill="#2d4b61" opacity="0.84"/><rect x="1176" y="280" width="16" height="8" fill="#1e3446" opacity="0.92"/><rect x="1288" y="280" width="16" height="8" fill="#11212f" opacity="0.95"/><rect x="1192" y="288" width="96" height="8" fill="#2d4b61" opacity="0.84"/><rect x="1192" y="288" width="16" height="8" fill="#1e3446" opacity="0.92"/><rect x="1272" y="288" width="16" height="8" fill="#11212f" opacity="0.95"/><rect x="1208" y="296" width="64" height="8" fill="#2d4b61" opacity="0.84"/><rect x="1208" y="296" width="16" height="8" fill="#1e3446" opacity="0.92"/><rect x="1256" y="296" width="16" height="8" fill="#11212f" opacity="0.95"/></g>
<g><rect x="1208" y="216" width="56" height="16" fill="#5d7e92" opacity="0.82"/><rect x="1208" y="216" width="16" height="48" fill="#5d7e92" opacity="0.82"/><rect x="1248" y="216" width="16" height="48" fill="#5d7e92" opacity="0.82"/><rect x="1208" y="216" width="8" height="48" fill="#87b8c8" opacity="0.92"/><rect x="1256" y="216" width="8" height="48" fill="#283b4c" opacity="0.92"/><rect x="1224" y="248" width="24" height="16" fill="#283b4c" opacity="0.15"/></g>
<g opacity="0.76"><rect x="1296" y="208" width="16" height="8" fill="#5d7e92"/><rect x="1288" y="216" width="32" height="48" fill="#5d7e92"/><rect x="1288" y="216" width="8" height="48" fill="#87b8c8"/><rect x="1312" y="216" width="8" height="48" fill="#283b4c"/></g>
<g><rect x="1288" y="264" width="16" height="96" fill="#47b9d6" opacity="0.82"/><rect x="1296" y="264" width="8" height="96" fill="#8af7ff" opacity="0.92"/><rect x="1280" y="360" width="32" height="8" fill="#8af7ff" opacity="0.45"/><rect x="1288" y="368" width="16" height="8" fill="#47b9d6" opacity="0.32"/><rect x="1272" y="376" width="48" height="8" fill="#78dff4" opacity="0.18"/></g>
<g><rect x="1176" y="304" width="8" height="8" fill="#274a3f" opacity="0.76"/><rect x="1176" y="312" width="8" height="8" fill="#274a3f" opacity="0.76"/><rect x="1168" y="312" width="8" height="8" fill="#3d725f" opacity="0.82"/><rect x="1176" y="320" width="8" height="8" fill="#274a3f" opacity="0.76"/><rect x="1176" y="328" width="8" height="8" fill="#274a3f" opacity="0.76"/><rect x="1176" y="336" width="8" height="8" fill="#274a3f" opacity="0.76"/><rect x="1168" y="336" width="8" height="8" fill="#3d725f" opacity="0.82"/><rect x="1176" y="344" width="8" height="8" fill="#274a3f" opacity="0.76"/><rect x="1176" y="352" width="8" height="8" fill="#274a3f" opacity="0.76"/><rect x="1176" y="360" width="8" height="8" fill="#274a3f" opacity="0.76"/><rect x="1168" y="360" width="8" height="8" fill="#3d725f" opacity="0.82"/></g>
<g opacity="0.72"><rect x="704" y="352" width="80" height="8" fill="#567f95" opacity="0.72"/><rect x="704" y="352" width="16" height="8" fill="#7fe9ff" opacity="0.72"/><rect x="696" y="360" width="96" height="8" fill="#567f95" opacity="0.72"/><rect x="696" y="360" width="16" height="8" fill="#7fe9ff" opacity="0.72"/><rect x="688" y="368" width="112" height="8" fill="#2d4b61" opacity="0.72"/><rect x="688" y="368" width="16" height="8" fill="#1e3446" opacity="0.92"/><rect x="784" y="368" width="16" height="8" fill="#11212f" opacity="0.95"/><rect x="696" y="376" width="96" height="8" fill="#2d4b61" opacity="0.72"/><rect x="696" y="376" width="16" height="8" fill="#1e3446" opacity="0.92"/><rect x="776" y="376" width="16" height="8" fill="#11212f" opacity="0.95"/><rect x="712" y="384" width="64" height="8" fill="#2d4b61" opacity="0.72"/><rect x="712" y="384" width="16" height="8" fill="#1e3446" opacity="0.92"/><rect x="760" y="384" width="16" height="8" fill="#11212f" opacity="0.95"/><rect x="720" y="392" width="40" height="8" fill="#2d4b61" opacity="0.72"/><rect x="720" y="392" width="16" height="8" fill="#1e3446" opacity="0.92"/><rect x="744" y="392" width="16" height="8" fill="#11212f" opacity="0.95"/></g>
<g opacity="0.68"><rect x="736" y="320" width="8" height="8" fill="#5d7e92"/><rect x="728" y="328" width="24" height="32" fill="#5d7e92"/><rect x="728" y="328" width="8" height="32" fill="#87b8c8"/><rect x="744" y="328" width="8" height="32" fill="#283b4c"/></g>
</svg>
