<?xml version="1.0" encoding="UTF-8"?>
<svg xmlns="http://www.w3.org/2000/svg" width="1536" height="864" viewBox="0 0 1536 864" shape-rendering="crispEdges">
<g><rect x="48" y="576" width="368" height="8" fill="#567f95"/><rect x="48" y="576" width="16" height="8" fill="#7fe9ff" opacity="1"/><rect x="24" y="584" width="416" height="8" fill="#567f95"/><rect x="24" y="584" width="16" height="8" fill="#7fe9ff" opacity="1"/><rect x="0" y="592" width="464" height="8" fill="#2d4b61"/><rect x="0" y="592" width="16" height="8" fill="#1e3446" opacity="0.92"/><rect x="448" y="592" width="16" height="8" fill="#11212f" opacity="0.95"/><rect x="-24" y="600" width="512" height="8" fill="#2d4b61"/><rect x="-24" y="600" width="16" height="8" fill="#1e3446" opacity="0.92"/><rect x="472" y="600" width="16" height="8" fill="#11212f" opacity="0.95"/><rect x="-32" y="608" width="528" height="8" fill="#2d4b61"/><rect x="-32" y="608" width="16" height="8" fill="#1e3446" opacity="0.92"/><rect x="480" y="608" width="16" height="8" fill="#11212f" opacity="0.95"/><rect x="-24" y="616" width="504" height="8" fill="#2d4b61"/><rect x="-24" y="616" width="16" height="8" fill="#1e3446" opacity="0.92"/><rect x="464" y="616" width="16" height="8" fill="#11212f" opacity="0.95"/><rect x="-8" y="624" width="464" height="8" fill="#2d4b61"/><rect x="-8" y="624" width="16" height="8" fill="#1e3446" opacity="0.92"/><rect x="440" y="624" width="16" height="8" fill="#11212f" opacity="0.95"/><rect x="16" y="632" width="416" height="8" fill="#2d4b61"/><rect x="16" y="632" width="16" height="8" fill="#1e3446" opacity="0.92"/><rect x="416" y="632" width="16" height="8" fill="#11212f" opacity="0.95"/><rect x="40" y="640" width="368" height="8" fill="#2d4b61"/><rect x="40" y="640" width="16" height="8" fill="#1e3446" opacity="0.92"/><rect x="392" y="640" width="16" height="8" fill="#11212f" opacity="0.95"/><rect x="64" y="648" width="320" height="8" fill="#2d4b61"/><rect x="64" y="648" width="16" height="8" fill="#1e3446" opacity="0.92"/><rect x="368" y="648" width="16" height="8" fill="#11212f" opacity="0.95"/><rect x="88" y="656" width="272" height="8" fill="#2d4b61"/><rect x="88" y="656" width="16" height="8" fill="#1e3446" opacity="0.92"/><rect x="344" y="656" width="16" height="8" fill="#11212f" opacity="0.95"/><rect x="112" y="664" width="224" height="8" fill="#2d4b61"/><rect x="112" y="664" width="16" height="8" fill="#1e3446" opacity="0.92"/><rect x="320" y="664" width="16" height="8" fill="#11212f" opacity="0.95"/><rect x="144" y="672" width="176" height="8" fill="#2d4b61"/><rect x="144" y="672" width="16" height="8" fill="#1e3446" opacity="0.92"/><rect x="304" y="672" width="16" height="8" fill="#11212f" opacity="0.95"/><rect x="184" y="680" width="112" height="8" fill="#2d4b61"/><rect x="184" y="680" width="16" height="8" fill="#1e3446" opacity="0.92"/><rect x="280" y="680" width="16" height="8" fill="#11212f" opacity="0.95"/><rect x="224" y="688" width="64" height="8" fill="#2d4b61"/><rect x="224" y="688" width="16" height="8" fill="#1e3446" opacity="0.92"/><rect x="272" y="688" width="16" height="8" fill="#11212f" opacity="0.95"/></g>
<g><rect x="176" y="512" width="88" height="16" fill="#5d7e92" opacity="0.96"/><rect x="176" y="512" width="16" height="80" fill="#5d7e92" opacity="0.96"/><rect x="248" y="512" width="16" height="80" fill="#5d7e92" opacity="0.96"/><rect x="176" y="512" width="8" height="80" fill="#87b8c8" opacity="0.92"/><rect x="256" y="512" width="8" height="80" fill="#283b4c" opacity="0.92"/><rect x="192" y="576" width="56" height="16" fill="#283b4c" opacity="0.15"/></g>
<g opacity="0.94"><rect x="288" y="488" width="32" height="8" fill="#5d7e92"/><rect x="280" y="496" width="48" height="96" fill="#5d7e92"/><rect x="280" y="496" width="8" height="96" fill="#87b8c8"/><rect x="320" y="496" width="8" height="96" fill="#283b4c"/><rect x="296" y="504" width="8" height="16" fill="#283b4c" opacity="0.85"/><rect x="304" y="512" width="8" height="16" fill="#283b4c" opacity="0.85"/><rect x="304" y="496" width="8" height="16" fill="#283b4c"/></g>
<g><g opacity="0.92"><rect x="88" y="544" width="8" height="8" fill="#5d7e92"/><rect x="80" y="552" width="24" height="40" fill="#5d7e92"/><rect x="80" y="552" width="8" height="40" fill="#87b8c8"/><rect x="96" y="552" width="8" height="40" fill="#283b4c"/></g><g opacity="0.88"><rect x="152" y="536" width="16" height="8" fill="#5d7e92"/><rect x="144" y="544" width="32" height="48" fill="#5d7e92"/><rect x="144" y="544" width="8" height="48" fill="#87b8c8"/><rect x="168" y="544" width="8" height="48" fill="#283b4c"/><rect x="160" y="544" width="8" height="16" fill="#283b4c"/></g><rect x="96" y="544" width="56" height="8" fill="#5d7e92" opacity="0.86"/></g>
<g><rect x="8" y="592" width="32" height="176" fill="#47b9d6" opacity="0.82"/><rect x="16" y="592" width="16" height="176" fill="#8af7ff" opacity="0.92"/><rect x="0" y="768" width="48" height="8" fill="#8af7ff" opacity="0.45"/><rect x="8" y="776" width="32" height="8" fill="#47b9d6" opacity="0.32"/><rect x="-8" y="784" width="64" height="8" fill="#78dff4" opacity="0.18"/></g>
<g><rect x="384" y="664" width="8" height="8" fill="#274a3f" opacity="0.92"/><rect x="384" y="672" width="8" height="8" fill="#274a3f" opacity="0.92"/><rect x="392" y="672" width="8" height="8" fill="#3d725f" opacity="0.82"/><rect x="384" y="680" width="8" height="8" fill="#274a3f" opacity="0.92"/><rect x="384" y="688" width="8" height="8" fill="#274a3f" opacity="0.92"/><rect x="384" y="696" width="8" height="8" fill="#274a3f" opacity="0.92"/><rect x="392" y="696" width="8" height="8" fill="#3d725f" opacity="0.82"/><rect x="384" y="704" width="8" height="8" fill="#274a3f" opacity="0.92"/><rect x="384" y="712" width="8" height="8" fill="#274a3f" opacity="0.92"/><rect x="384" y="720" width="8" height="8" fill="#274a3f" opacity="0.92"/><rect x="392" y="720" width="8" height="8" fill="#3d725f" opacity="0.82"/><rect x="384" y="728" width="8" height="8" fill="#274a3f" opacity="0.92"/><rect x="384" y="736" width="8" height="8" fill="#274a3f" opacity="0.92"/><rect x="384" y="744" width="8" height="8" fill="#274a3f" opacity="0.92"/><rect x="392" y="744" width="8" height="8" fill="#3d725f" opacity="0.82"/><rect x="384" y="752" width="8" height="8" fill="#274a3f" opacity="0.92"/><rect x="384" y="760" width="8" height="8" fill="#274a3f" opacity="0.92"/></g>
<g><rect x="216" y="696" width="8" height="8" fill="#274a3f" opacity="0.92"/><rect x="216" y="704" width="8" height="8" fill="#274a3f" opacity="0.92"/><rect x="208" y="704" width="8" height="8" fill="#3d725f" opacity="0.82"/><rect x="216" y="712" width="8" height="8" fill="#274a3f" opacity="0.92"/><rect x="216" y="720" width="8" height="8" fill="#274a3f" opacity="0.92"/><rect x="216" y="728" width="8" height="8" fill="#274a3f" opacity="0.92"/><rect x="208" y="728" width="8" height="8" fill="#3d725f" opacity="0.82"/><rect x="216" y="736" width="8" height="8" fill="#274a3f" opacity="0.92"/><rect x="216" y="744" width="8" height="8" fill="#274a3f" opacity="0.92"/><rect x="216" y="752" width="8" height="8" fill="#274a3f" opacity="0.92"/><rect x="208" y="752" width="8" height="8" fill="#3d725f" opacity="0.82"/><rect x="216" y="760" width="8" height="8" fill="#274a3f" opacity="0.92"/><rect x="216" y="768" width="8" height="8" fill="#274a3f" opacity="0.92"/></g>
<g><rect x="120" y="720" width="8" height="8" fill="#274a3f" opacity="0.92"/><rect x="120" y="728" width="8" height="8" fill="#274a3f" opacity="0.92"/><rect x="112" y="728" width="8" height="8" fill="#3d725f" opacity="0.82"/><rect x="120" y="736" width="8" height="8" fill="#274a3f" opacity="0.92"/><rect x="120" y="744" width="8" height="8" fill="#274a3f" opacity="0.92"/><rect x="120" y="752" width="8" height="8" fill="#274a3f" opacity="0.92"/><rect x="112" y="752" width="8" height="8" fill="#3d725f" opacity="0.82"/><rect x="120" y="760" width="8" height="8" fill="#274a3f" opacity="0.92"/><rect x="120" y="768" width="8" height="8" fill="#274a3f" opacity="0.92"/><rect x="120" y="776" width="8" height="8" fill="#274a3f" opacity="0.92"/><rect x="112" y="776" width="8" height="8" fill="#3d725f" opacity="0.82"/></g>
<g><rect x="1056" y="560" width="352" height="8" fill="#567f95"/><rect x="1056" y="560" width="16" height="8" fill="#7fe9ff" opacity="1"/><rect x="1040" y="568" width="384" height="8" fill="#567f95"/><rect x="1040" y="568" width="16" height="8" fill="#7fe9ff" opacity="1"/><rect x="1024" y="576" width="416" height="8" fill="#2d4b61"/><rect x="1024" y="576" width="16" height="8" fill="#1e3446" opacity="0.92"/><rect x="1424" y="576" width="16" height="8" fill="#11212f" opacity="0.95"/><rect x="1008" y="584" width="448" height="8" fill="#2d4b61"/><rect x="1008" y="584" width="16" height="8" fill="#1e3446" opacity="0.92"/><rect x="1440" y="584" width="16" height="8" fill="#11212f" opacity="0.95"/><rect x="1008" y="592" width="464" height="8" fill="#2d4b61"/><rect x="1008" y="592" width="16" height="8" fill="#1e3446" opacity="0.92"/><rect x="1456" y="592" width="16" height="8" fill="#11212f" opacity="0.95"/><rect x="1024" y="600" width="432" height="8" fill="#2d4b61"/><rect x="1024" y="600" width="16" height="8" fill="#1e3446" opacity="0.92"/><rect x="1440" y="600" width="16" height="8" fill="#11212f" opacity="0.95"/><rect x="1040" y="608" width="384" height="8" fill="#2d4b61"/><rect x="1040" y="608" width="16" height="8" fill="#1e3446" opacity="0.92"/><rect x="1408" y="608" width="16" height="8" fill="#11212f" opacity="0.95"/><rect x="1064" y="616" width="336" height="8" fill="#2d4b61"/><rect x="1064" y="616" width="16" height="8" fill="#1e3446" opacity="0.92"/><rect x="1384" y="616" width="16" height="8" fill="#11212f" opacity="0.95"/><rect x="1088" y="624" width="288" height="8" fill="#2d4b61"/><rect x="1088" y="624" width="16" height="8" fill="#1e3446" opacity="0.92"/><rect x="1360" y="624" width="16" height="8" fill="#11212f" opacity="0.95"/><rect x="1112" y="632" width="240" height="8" fill="#2d4b61"/><rect x="1112" y="632" width="16" height="8" fill="#1e3446" opacity="0.92"/><rect x="1336" y="632" width="16" height="8" fill="#11212f" opacity="0.95"/><rect x="1136" y="640" width="192" height="8" fill="#2d4b61"/><rect x="1136" y="640" width="16" height="8" fill="#1e3446" opacity="0.92"/><rect x="1312" y="640" width="16" height="8" fill="#11212f" opacity="0.95"/><rect x="1168" y="648" width="144" height="8" fill="#2d4b61"/><rect x="1168" y="648" width="16" height="8" fill="#1e3446" opacity="0.92"/><rect x="1296" y="648" width="16" height="8" fill="#11212f" opacity="0.95"/><rect x="1208" y="656" width="96" height="8" fill="#2d4b61"/><rect x="1208" y="656" width="16" height="8" fill="#1e3446" opacity="0.92"/><rect x="1288" y="656" width="16" height="8" fill="#11212f" opacity="0.95"/><rect x="1240" y="664" width="64" height="8" fill="#2d4b61"/><rect x="1240" y="664" width="16" height="8" fill="#1e3446" opacity="0.92"/><rect x="1288" y="664" width="16" height="8" fill="#11212f" opacity="0.95"/></g>
<g opacity="0.96"><rect x="1120" y="480" width="32" height="8" fill="#5d7e92"/><rect x="1112" y="488" width="48" height="104" fill="#5d7e92"/><rect x="1112" y="488" width="8" height="104" fill="#87b8c8"/><rect x="1152" y="488" width="8" height="104" fill="#283b4c"/><rect x="1128" y="496" width="8" height="16" fill="#283b4c" opacity="0.85"/><rect x="1136" y="504" width="8" height="16" fill="#283b4c" opacity="0.85"/></g>
<g><rect x="1192" y="512" width="96" height="16" fill="#5d7e92" opacity="0.94"/><rect x="1192" y="512" width="16" height="80" fill="#5d7e92" opacity="0.94"/><rect x="1272" y="512" width="16" height="80" fill="#5d7e92" opacity="0.94"/><rect x="1192" y="512" width="8" height="80" fill="#87b8c8" opacity="0.92"/><rect x="1280" y="512" width="8" height="80" fill="#283b4c" opacity="0.92"/><rect x="1208" y="576" width="64" height="16" fill="#283b4c" opacity="0.15"/></g>
<g><g opacity="0.92"><rect x="1304" y="544" width="8" height="8" fill="#5d7e92"/><rect x="1296" y="552" width="24" height="40" fill="#5d7e92"/><rect x="1296" y="552" width="8" height="40" fill="#87b8c8"/><rect x="1312" y="552" width="8" height="40" fill="#283b4c"/></g><g opacity="0.88"><rect x="1360" y="536" width="16" height="8" fill="#5d7e92"/><rect x="1352" y="544" width="32" height="48" fill="#5d7e92"/><rect x="1352" y="544" width="8" height="48" fill="#87b8c8"/><rect x="1376" y="544" width="8" height="48" fill="#283b4c"/><rect x="1368" y="544" width="8" height="16" fill="#283b4c"/></g><rect x="1312" y="544" width="48" height="8" fill="#5d7e92" opacity="0.86"/></g>
<g><rect x="1408" y="592" width="32" height="168" fill="#47b9d6" opacity="0.82"/><rect x="1416" y="592" width="16" height="168" fill="#8af7ff" opacity="0.92"/><rect x="1400" y="760" width="48" height="8" fill="#8af7ff" opacity="0.45"/><rect x="1408" y="768" width="32" height="8" fill="#47b9d6" opacity="0.32"/><rect x="1392" y="776" width="64" height="8" fill="#78dff4" opacity="0.18"/></g>
<g><rect x="1064" y="656" width="8" height="8" fill="#274a3f" opacity="0.92"/><rect x="1064" y="664" width="8" height="8" fill="#274a3f" opacity="0.92"/><rect x="1056" y="664" width="8" height="8" fill="#3d725f" opacity="0.82"/><rect x="1064" y="672" width="8" height="8" fill="#274a3f" opacity="0.92"/><rect x="1064" y="680" width="8" height="8" fill="#274a3f" opacity="0.92"/><rect x="1064" y="688" width="8" height="8" fill="#274a3f" opacity="0.92"/><rect x="1056" y="688" width="8" height="8" fill="#3d725f" opacity="0.82"/><rect x="1064" y="696" width="8" height="8" fill="#274a3f" opacity="0.92"/><rect x="1064" y="704" width="8" height="8" fill="#274a3f" opacity="0.92"/><rect x="1064" y="712" width="8" height="8" fill="#274a3f" opacity="0.92"/><rect x="1056" y="712" width="8" height="8" fill="#3d725f" opacity="0.82"/><rect x="1064" y="720" width="8" height="8" fill="#274a3f" opacity="0.92"/><rect x="1064" y="728" width="8" height="8" fill="#274a3f" opacity="0.92"/><rect x="1064" y="736" width="8" height="8" fill="#274a3f" opacity="0.92"/><rect x="1056" y="736" width="8" height="8" fill="#3d725f" opacity="0.82"/><rect x="1064" y="744" width="8" height="8" fill="#274a3f" opacity="0.92"/><rect x="1064" y="752" width="8" height="8" fill="#274a3f" opacity="0.92"/></g>
<g><rect x="1232" y="688" width="8" height="8" fill="#274a3f" opacity="0.92"/><rect x="1232" y="696" width="8" height="8" fill="#274a3f" opacity="0.92"/><rect x="1240" y="696" width="8" height="8" fill="#3d725f" opacity="0.82"/><rect x="1232" y="704" width="8" height="8" fill="#274a3f" opacity="0.92"/><rect x="1232" y="712" width="8" height="8" fill="#274a3f" opacity="0.92"/><rect x="1232" y="720" width="8" height="8" fill="#274a3f" opacity="0.92"/><rect x="1240" y="720" width="8" height="8" fill="#3d725f" opacity="0.82"/><rect x="1232" y="728" width="8" height="8" fill="#274a3f" opacity="0.92"/><rect x="1232" y="736" width="8" height="8" fill="#274a3f" opacity="0.92"/><rect x="1232" y="744" width="8" height="8" fill="#274a3f" opacity="0.92"/><rect x="1240" y="744" width="8" height="8" fill="#3d725f" opacity="0.82"/><rect x="1232" y="752" width="8" height="8" fill="#274a3f" opacity="0.92"/></g>
<g><rect x="1352" y="712" width="8" height="8" fill="#274a3f" opacity="0.92"/><rect x="1352" y="720" width="8" height="8" fill="#274a3f" opacity="0.92"/><rect x="1360" y="720" width="8" height="8" fill="#3d725f" opacity="0.82"/><rect x="1352" y="728" width="8" height="8" fill="#274a3f" opacity="0.92"/><rect x="1352" y="736" width="8" height="8" fill="#274a3f" opacity="0.92"/><rect x="1352" y="744" width="8" height="8" fill="#274a3f" opacity="0.92"/><rect x="1360" y="744" width="8" height="8" fill="#3d725f" opacity="0.82"/><rect x="1352" y="752" width="8" height="8" fill="#274a3f" opacity="0.92"/><rect x="1352" y="760" width="8" height="8" fill="#274a3f" opacity="0.92"/></g>
</svg>
