<?xml version="1.0" encoding="UTF-8"?>
<svg xmlns="http://www.w3.org/2000/svg" width="1536" height="864" viewBox="0 0 1536 864" shape-rendering="crispEdges">
<polygon points="0,864 0,624 80,576 144,512 224,576 304,480 384,552 464,464 576,560 688,496 800,576 912,480 1008,592 1120,496 1248,624 1360,544 1472,640 1536,656 1536,864" fill="#0a1c29" opacity="0.96"/>
<polygon points="0,864 0,688 112,640 224,592 336,656 480,560 608,672 736,608 864,688 992,592 1104,672 1216,624 1344,704 1456,656 1536,704 1536,864" fill="#10293a" opacity="0.88"/>
<rect x="0" y="576" width="1536" height="32" fill="#78dff4" opacity="0.06"/>
<g opacity="0.28"><rect x="192" y="576" width="8" height="8" fill="#5d7e92"/><rect x="184" y="584" width="24" height="32" fill="#5d7e92"/><rect x="184" y="584" width="8" height="32" fill="#87b8c8"/><rect x="200" y="584" width="8" height="32" fill="#283b4c"/></g>
<g><rect x="1072" y="584" width="48" height="16" fill="#5d7e92" opacity="0.22"/><rect x="1072" y="584" width="16" height="32" fill="#5d7e92" opacity="0.22"/><rect x="1104" y="584" width="16" height="32" fill="#5d7e92" opacity="0.22"/><rect x="1072" y="584" width="8" height="32" fill="#87b8c8" opacity="0.92"/><rect x="1112" y="584" width="8" height="32" fill="#283b4c" opacity="0.92"/><rect x="1088" y="600" width="16" height="16" fill="#283b4c" opacity="0.15"/></g>
</svg>
