<?xml version="1.0" encoding="UTF-8"?>
<svg xmlns="http://www.w3.org/2000/svg" width="1536" height="864" viewBox="0 0 1536 864" shape-rendering="crispEdges">
<rect x="0" y="0" width="1536" height="64" fill="#04131d"/>
<rect x="0" y="64" width="1536" height="48" fill="#051826"/>
<rect x="0" y="112" width="1536" height="64" fill="#082133"/>
<rect x="0" y="176" width="1536" height="64" fill="#0a2b42"/>
<rect x="0" y="240" width="1536" height="64" fill="#0d3854"/>
<rect x="0" y="304" width="1536" height="64" fill="#114764"/>
<rect x="0" y="368" width="1536" height="64" fill="#155b76"/>
<rect x="0" y="432" width="1536" height="64" fill="#1a6274"/>
<rect x="0" y="496" width="1536" height="64" fill="#13485f"/>
<rect x="0" y="560" width="1536" height="80" fill="#0d3248"/>
<rect x="0" y="640" width="1536" height="96" fill="#0a2538"/>
<rect x="0" y="736" width="1536" height="128" fill="#071926"/>
<rect x="0" y="416" width="1536" height="32" fill="#78dff4" opacity="0.08"/>
<rect x="0" y="448" width="1536" height="16" fill="#78dff4" opacity="0.05"/>
<g><rect x="1248" y="-8" width="8" height="8" fill="#78dff4" opacity="0.08"/><rect x="1208" y="0" width="88" height="8" fill="#78dff4" opacity="0.08"/><rect x="1192" y="8" width="120" height="8" fill="#78dff4" opacity="0.08"/><rect x="1176" y="16" width="152" height="8" fill="#78dff4" opacity="0.08"/><rect x="1168" y="24" width="168" height="8" fill="#78dff4" opacity="0.08"/><rect x="1160" y="32" width="184" height="8" fill="#78dff4" opacity="0.08"/><rect x="1160" y="40" width="184" height="8" fill="#78dff4" opacity="0.08"/><rect x="1152" y="48" width="200" height="8" fill="#78dff4" opacity="0.08"/><rect x="1144" y="56" width="216" height="8" fill="#78dff4" opacity="0.08"/><rect x="1144" y="64" width="216" height="8" fill="#78dff4" opacity="0.08"/><rect x="1144" y="72" width="216" height="8" fill="#78dff4" opacity="0.08"/><rect x="1136" y="80" width="232" height="8" fill="#78dff4" opacity="0.08"/><rect x="1136" y="88" width="232" height="8" fill="#78dff4" opacity="0.08"/><rect x="1136" y="96" width="232" height="8" fill="#78dff4" opacity="0.08"/><rect x="1136" y="104" width="232" height="8" fill="#78dff4" opacity="0.08"/><rect x="1136" y="112" width="232" height="8" fill="#78dff4" opacity="0.08"/><rect x="1136" y="120" width="232" height="8" fill="#78dff4" opacity="0.08"/><rect x="1136" y="128" width="232" height="8" fill="#78dff4" opacity="0.08"/><rect x="1144" y="136" width="216" height="8" fill="#78dff4" opacity="0.08"/><rect x="1144" y="144" width="216" height="8" fill="#78dff4" opacity="0.08"/><rect x="1144" y="152" width="216" height="8" fill="#78dff4" opacity="0.08"/><rect x="1152" y="160" width="200" height="8" fill="#78dff4" opacity="0.08"/><rect x="1160" y="168" width="184" height="8" fill="#78dff4" opacity="0.08"/><rect x="1160" y="176" width="184" height="8" fill="#78dff4" opacity="0.08"/><rect x="1168" y="184" width="168" height="8" fill="#78dff4" opacity="0.08"/><rect x="1176" y="192" width="152" height="8" fill="#78dff4" opacity="0.08"/><rect x="1192" y="200" width="120" height="8" fill="#78dff4" opacity="0.08"/><rect x="1208" y="208" width="88" height="8" fill="#78dff4" opacity="0.08"/><rect x="1248" y="216" width="8" height="8" fill="#78dff4" opacity="0.08"/></g>
<g><rect x="1248" y="16" width="8" height="8" fill="#d8fbff" opacity="0.14"/><rect x="1208" y="24" width="88" height="8" fill="#d8fbff" opacity="0.14"/><rect x="1200" y="32" width="104" height="8" fill="#d8fbff" opacity="0.14"/><rect x="1184" y="40" width="136" height="8" fill="#d8fbff" opacity="0.14"/><rect x="1184" y="48" width="136" height="8" fill="#d8fbff" opacity="0.14"/><rect x="1176" y="56" width="152" height="8" fill="#d8fbff" opacity="0.14"/><rect x="1168" y="64" width="168" height="8" fill="#d8fbff" opacity="0.14"/><rect x="1168" y="72" width="168" height="8" fill="#d8fbff" opacity="0.14"/><rect x="1160" y="80" width="184" height="8" fill="#d8fbff" opacity="0.14"/><rect x="1160" y="88" width="184" height="8" fill="#d8fbff" opacity="0.14"/><rect x="1160" y="96" width="184" height="8" fill="#d8fbff" opacity="0.14"/><rect x="1160" y="104" width="184" height="8" fill="#d8fbff" opacity="0.14"/><rect x="1160" y="112" width="184" height="8" fill="#d8fbff" opacity="0.14"/><rect x="1160" y="120" width="184" height="8" fill="#d8fbff" opacity="0.14"/><rect x="1160" y="128" width="184" height="8" fill="#d8fbff" opacity="0.14"/><rect x="1168" y="136" width="168" height="8" fill="#d8fbff" opacity="0.14"/><rect x="1168" y="144" width="168" height="8" fill="#d8fbff" opacity="0.14"/><rect x="1176" y="152" width="152" height="8" fill="#d8fbff" opacity="0.14"/><rect x="1184" y="160" width="136" height="8" fill="#d8fbff" opacity="0.14"/><rect x="1184" y="168" width="136" height="8" fill="#d8fbff" opacity="0.14"/><rect x="1200" y="176" width="104" height="8" fill="#d8fbff" opacity="0.14"/><rect x="1208" y="184" width="88" height="8" fill="#d8fbff" opacity="0.14"/><rect x="1248" y="192" width="8" height="8" fill="#d8fbff" opacity="0.14"/></g>
<g><rect x="1248" y="40" width="8" height="8" fill="#d8fbff" opacity="0.95"/><rect x="1216" y="48" width="72" height="8" fill="#d8fbff" opacity="0.95"/><rect x="1208" y="56" width="88" height="8" fill="#d8fbff" opacity="0.95"/><rect x="1200" y="64" width="104" height="8" fill="#d8fbff" opacity="0.95"/><rect x="1192" y="72" width="120" height="8" fill="#d8fbff" opacity="0.95"/><rect x="1192" y="80" width="120" height="8" fill="#d8fbff" opacity="0.95"/><rect x="1184" y="88" width="136" height="8" fill="#d8fbff" opacity="0.95"/><rect x="1184" y="96" width="136" height="8" fill="#d8fbff" opacity="0.95"/><rect x="1184" y="104" width="136" height="8" fill="#d8fbff" opacity="0.95"/><rect x="1184" y="112" width="136" height="8" fill="#d8fbff" opacity="0.95"/><rect x="1184" y="120" width="136" height="8" fill="#d8fbff" opacity="0.95"/><rect x="1192" y="128" width="120" height="8" fill="#d8fbff" opacity="0.95"/><rect x="1192" y="136" width="120" height="8" fill="#d8fbff" opacity="0.95"/><rect x="1200" y="144" width="104" height="8" fill="#d8fbff" opacity="0.95"/><rect x="1208" y="152" width="88" height="8" fill="#d8fbff" opacity="0.95"/><rect x="1216" y="160" width="72" height="8" fill="#d8fbff" opacity="0.95"/><rect x="1248" y="168" width="8" height="8" fill="#d8fbff" opacity="0.95"/></g>
<rect x="1264" y="112" width="16" height="16" fill="#7dc7d9" opacity="0.28"/>
<rect x="1216" y="88" width="8" height="8" fill="#7dc7d9" opacity="0.22"/>
<rect x="1232" y="136" width="8" height="8" fill="#7dc7d9" opacity="0.3"/>
<g opacity="0.95"><rect x="144" y="80" width="8" height="8" fill="#d9fbff" opacity="0.95"/><rect x="136" y="80" width="8" height="8" fill="#d9fbff" opacity="0.4275"/><rect x="152" y="80" width="8" height="8" fill="#d9fbff" opacity="0.4275"/><rect x="144" y="72" width="8" height="8" fill="#d9fbff" opacity="0.4275"/><rect x="144" y="88" width="8" height="8" fill="#d9fbff" opacity="0.4275"/></g>
<g opacity="0.85"><rect x="336" y="144" width="8" height="8" fill="#d9fbff" opacity="0.85"/><rect x="328" y="144" width="8" height="8" fill="#d9fbff" opacity="0.3825"/><rect x="344" y="144" width="8" height="8" fill="#d9fbff" opacity="0.3825"/><rect x="336" y="136" width="8" height="8" fill="#d9fbff" opacity="0.3825"/><rect x="336" y="152" width="8" height="8" fill="#d9fbff" opacity="0.3825"/></g>
<g opacity="0.9"><rect x="544" y="96" width="8" height="8" fill="#d9fbff" opacity="0.9"/><rect x="536" y="96" width="8" height="8" fill="#d9fbff" opacity="0.405"/><rect x="552" y="96" width="8" height="8" fill="#d9fbff" opacity="0.405"/><rect x="544" y="88" width="8" height="8" fill="#d9fbff" opacity="0.405"/><rect x="544" y="104" width="8" height="8" fill="#d9fbff" opacity="0.405"/></g>
<g opacity="0.72"><rect x="720" y="64" width="8" height="8" fill="#d9fbff" opacity="0.72"/><rect x="712" y="64" width="8" height="8" fill="#d9fbff" opacity="0.324"/><rect x="728" y="64" width="8" height="8" fill="#d9fbff" opacity="0.324"/><rect x="720" y="56" width="8" height="8" fill="#d9fbff" opacity="0.324"/><rect x="720" y="72" width="8" height="8" fill="#d9fbff" opacity="0.324"/></g>
<g opacity="0.78"><rect x="944" y="160" width="8" height="8" fill="#d9fbff" opacity="0.78"/><rect x="936" y="160" width="8" height="8" fill="#d9fbff" opacity="0.35100000000000003"/><rect x="952" y="160" width="8" height="8" fill="#d9fbff" opacity="0.35100000000000003"/><rect x="944" y="152" width="8" height="8" fill="#d9fbff" opacity="0.35100000000000003"/><rect x="944" y="168" width="8" height="8" fill="#d9fbff" opacity="0.35100000000000003"/></g>
<g opacity="0.88"><rect x="1328" y="88" width="8" height="8" fill="#d9fbff" opacity="0.88"/><rect x="1320" y="88" width="8" height="8" fill="#d9fbff" opacity="0.396"/><rect x="1336" y="88" width="8" height="8" fill="#d9fbff" opacity="0.396"/><rect x="1328" y="80" width="8" height="8" fill="#d9fbff" opacity="0.396"/><rect x="1328" y="96" width="8" height="8" fill="#d9fbff" opacity="0.396"/></g>
<g opacity="0.72"><rect x="1424" y="200" width="8" height="8" fill="#d9fbff" opacity="0.72"/><rect x="1416" y="200" width="8" height="8" fill="#d9fbff" opacity="0.324"/><rect x="1432" y="200" width="8" height="8" fill="#d9fbff" opacity="0.324"/><rect x="1424" y="192" width="8" height="8" fill="#d9fbff" opacity="0.324"/><rect x="1424" y="208" width="8" height="8" fill="#d9fbff" opacity="0.324"/></g>
<g opacity="0.7"><rect x="1104" y="240" width="8" height="8" fill="#d9fbff" opacity="0.7"/><rect x="1096" y="240" width="8" height="8" fill="#d9fbff" opacity="0.315"/><rect x="1112" y="240" width="8" height="8" fill="#d9fbff" opacity="0.315"/><rect x="1104" y="232" width="8" height="8" fill="#d9fbff" opacity="0.315"/><rect x="1104" y="248" width="8" height="8" fill="#d9fbff" opacity="0.315"/></g>
<g opacity="0.66"><rect x="208" y="256" width="8" height="8" fill="#d9fbff" opacity="0.66"/><rect x="200" y="256" width="8" height="8" fill="#d9fbff" opacity="0.29700000000000004"/><rect x="216" y="256" width="8" height="8" fill="#d9fbff" opacity="0.29700000000000004"/><rect x="208" y="248" width="8" height="8" fill="#d9fbff" opacity="0.29700000000000004"/><rect x="208" y="264" width="8" height="8" fill="#d9fbff" opacity="0.29700000000000004"/></g>
<g opacity="0.8"><rect x="832" y="128" width="8" height="8" fill="#d9fbff" opacity="0.8"/><rect x="824" y="128" width="8" height="8" fill="#d9fbff" opacity="0.36000000000000004"/><rect x="840" y="128" width="8" height="8" fill="#d9fbff" opacity="0.36000000000000004"/><rect x="832" y="120" width="8" height="8" fill="#d9fbff" opacity="0.36000000000000004"/><rect x="832" y="136" width="8" height="8" fill="#d9fbff" opacity="0.36000000000000004"/></g>
<g opacity="0.78"><rect x="464" y="216" width="8" height="8" fill="#d9fbff" opacity="0.78"/><rect x="456" y="216" width="8" height="8" fill="#d9fbff" opacity="0.35100000000000003"/><rect x="472" y="216" width="8" height="8" fill="#d9fbff" opacity="0.35100000000000003"/><rect x="464" y="208" width="8" height="8" fill="#d9fbff" opacity="0.35100000000000003"/><rect x="464" y="224" width="8" height="8" fill="#d9fbff" opacity="0.35100000000000003"/></g>
<g opacity="0.54"><rect x="656" y="176" width="16" height="16" fill="#d9fbff" opacity="0.54"/><rect x="640" y="176" width="16" height="16" fill="#d9fbff" opacity="0.24300000000000002"/><rect x="672" y="176" width="16" height="16" fill="#d9fbff" opacity="0.24300000000000002"/><rect x="656" y="160" width="16" height="16" fill="#d9fbff" opacity="0.24300000000000002"/><rect x="656" y="192" width="16" height="16" fill="#d9fbff" opacity="0.24300000000000002"/></g>
<g opacity="0.16"><rect x="160" y="160" width="80" height="8" fill="#c8f5ff" opacity="0.16"/><rect x="160" y="160" width="16" height="8" fill="#e7fdff" opacity="0.16"/><rect x="144" y="168" width="112" height="8" fill="#c8f5ff" opacity="0.16"/><rect x="144" y="168" width="16" height="8" fill="#e7fdff" opacity="0.16"/><rect x="128" y="176" width="144" height="8" fill="#8ecfe1" opacity="0.16"/><rect x="128" y="176" width="16" height="8" fill="#1e3446" opacity="0.92"/><rect x="256" y="176" width="16" height="8" fill="#4c8ba1" opacity="0.95"/><rect x="136" y="184" width="128" height="8" fill="#8ecfe1" opacity="0.16"/><rect x="136" y="184" width="16" height="8" fill="#1e3446" opacity="0.92"/><rect x="248" y="184" width="16" height="8" fill="#4c8ba1" opacity="0.95"/><rect x="168" y="192" width="64" height="8" fill="#8ecfe1" opacity="0.16"/><rect x="168" y="192" width="16" height="8" fill="#1e3446" opacity="0.92"/><rect x="216" y="192" width="16" height="8" fill="#4c8ba1" opacity="0.95"/></g>
<g opacity="0.14"><rect x="1016" y="224" width="64" height="8" fill="#c8f5ff" opacity="0.14"/><rect x="1016" y="224" width="16" height="8" fill="#e7fdff" opacity="0.14"/><rect x="1000" y="232" width="96" height="8" fill="#c8f5ff" opacity="0.14"/><rect x="1000" y="232" width="16" height="8" fill="#e7fdff" opacity="0.14"/><rect x="992" y="240" width="128" height="8" fill="#8ecfe1" opacity="0.14"/><rect x="992" y="240" width="16" height="8" fill="#1e3446" opacity="0.92"/><rect x="1104" y="240" width="16" height="8" fill="#4c8ba1" opacity="0.95"/><rect x="1008" y="248" width="96" height="8" fill="#8ecfe1" opacity="0.14"/><rect x="1008" y="248" width="16" height="8" fill="#1e3446" opacity="0.92"/><rect x="1088" y="248" width="16" height="8" fill="#4c8ba1" opacity="0.95"/><rect x="1032" y="256" width="48" height="8" fill="#8ecfe1" opacity="0.14"/><rect x="1032" y="256" width="16" height="8" fill="#1e3446" opacity="0.92"/><rect x="1064" y="256" width="16" height="8" fill="#4c8ba1" opacity="0.95"/></g>
<g opacity="0.09"><rect x="592" y="280" width="48" height="8" fill="#c8f5ff" opacity="0.09"/><rect x="592" y="280" width="16" height="8" fill="#e7fdff" opacity="0.09"/><rect x="584" y="288" width="72" height="8" fill="#c8f5ff" opacity="0.09"/><rect x="584" y="288" width="16" height="8" fill="#e7fdff" opacity="0.09"/><rect x="576" y="296" width="88" height="8" fill="#8ecfe1" opacity="0.09"/><rect x="576" y="296" width="16" height="8" fill="#1e3446" opacity="0.92"/><rect x="648" y="296" width="16" height="8" fill="#4c8ba1" opacity="0.95"/><rect x="584" y="304" width="64" height="8" fill="#8ecfe1" opacity="0.09"/><rect x="584" y="304" width="16" height="8" fill="#1e3446" opacity="0.92"/><rect x="632" y="304" width="16" height="8" fill="#4c8ba1" opacity="0.95"/><rect x="600" y="312" width="32" height="8" fill="#8ecfe1" opacity="0.09"/><rect x="600" y="312" width="16" height="8" fill="#1e3446" opacity="0.92"/><rect x="616" y="312" width="16" height="8" fill="#4c8ba1" opacity="0.95"/></g>
</svg>
