<svg xmlns="http://www.w3.org/2000/svg" viewBox="-3 -3 30 30" width="32" height="32">
  <rect x="-3" y="-3" width="30" height="30" rx="6" fill="#12151E"></rect>
  <g fill="#E5A04C">
    <rect x="4.8" y="0" width="4.8" height="4.8"></rect>
    <rect x="9.6" y="0" width="4.8" height="4.8"></rect>
    <rect x="14.4" y="0" width="4.8" height="4.8"></rect>
    <rect x="19.2" y="0" width="4.8" height="4.8"></rect>
    <rect x="0" y="4.8" width="4.8" height="4.8"></rect>
    <rect x="0" y="9.6" width="4.8" height="4.8"></rect>
    <rect x="4.8" y="9.6" width="4.8" height="4.8"></rect>
    <rect x="9.6" y="9.6" width="4.8" height="4.8"></rect>
    <rect x="14.4" y="9.6" width="4.8" height="4.8"></rect>
    <rect x="19.2" y="14.4" width="4.8" height="4.8"></rect>
    <rect x="0" y="19.2" width="4.8" height="4.8"></rect>
    <rect x="4.8" y="19.2" width="4.8" height="4.8"></rect>
    <rect x="9.6" y="19.2" width="4.8" height="4.8"></rect>
    <rect x="14.4" y="19.2" width="4.8" height="4.8"></rect>
  </g>
</svg>